<svg xmlns="http://www.w3.org/2000/svg" viewBox="0 0 161.22 205.14"><defs><style>.cls-1{font-size:46.11px;font-family:Futura-Med, Futura;}.cls-2{letter-spacing:0.62em;}.cls-3{letter-spacing:0.61em;}.cls-4{fill:none;}</style></defs><title>rin-logo</title><g id="レイヤー_2" data-name="レイヤー 2"><g id="レイヤー_3" data-name="レイヤー 3"><text class="cls-1" transform="translate(0 193.61) scale(1.26 1)"><tspan class="cls-2">R</tspan><tspan class="cls-3" x="53.35" y="0">I</tspan><tspan x="93.74" y="0">N</tspan></text><path class="cls-4" d="M35.24,80.27H28.86l43.79,47.23V54.66A40.14,40.14,0,0,1,35.24,80.27Z"/><path d="M122.64,0V127.48L75.37,76.15V0H72.65V25.61A40.14,40.14,0,0,0,35.24,0h-10V2.68h10a37.46,37.46,0,0,1,37.42,35.7V41.9a37.46,37.46,0,0,1-37.42,35.7h-10v2.66h0l46.51,50.17h3.65V80.27l46.21,50.17h3.78V0ZM28.86,80.27h6.37A40.14,40.14,0,0,0,72.65,54.66v72.85Z"/></g></g></svg>